<?xml version="1.0" encoding="utf-8"?>
<!-- Generator: Adobe Illustrator 27.6.1, SVG Export Plug-In . SVG Version: 6.00 Build 0)  -->
<svg version="1.1" id="Слой_1" xmlns="http://www.w3.org/2000/svg" xmlns:xlink="http://www.w3.org/1999/xlink" x="0px" y="0px"
	 viewBox="0 0 800 411.3" style="enable-background:new 0 0 800 411.3;" xml:space="preserve">
<style type="text/css">
	.st0{fill:#FFFFFF;}
</style>
<path class="st0" d="M222.1,150.2c46.7,0,93.5,0,140.2,0c6.4,0,6.4,0,6.4,6.8c0,80.5,0,160.9,0.1,241.4c0,6.8,0,6.8-6.5,6.8
	c-93.6,0-187.2-0.1-280.8-0.1c-6.4,0-6.4,0-6.4-6.5c0-80.8,0-161.5,0-242.3c0-5.9,0.1-6.1,5.5-6.1
	C127.8,150.3,175,150.3,222.1,150.2C222.1,150.2,222.1,150.2,222.1,150.2z M222.1,159c0-0.1,0-0.1,0-0.2c-44.2,0-88.4,0-132.6,0
	c-6.4,0-6.5,0-6.5,6.5c0,74.7,0.1,149.4,0.1,224.1c0,7.7,0.1,7.6,7.2,7.6c88,0,175.9,0,263.9,0c6.3,0,6.3,0,6.3-6.6
	c0.1-75.1,0.1-150.3,0.2-225.4c0-5.8-0.2-6-5.7-6C310.8,159,266.4,159,222.1,159z"/>
<path class="st0" d="M191.8,49.2c6.2-4.1,11.4-7.4,16.6-10.9c13.9-9.4,27.9-18.8,41.7-28.4c3.3-2.3,5.4-2.1,8.3,0.8
	c42.1,43.4,84.2,86.6,126.4,129.9c5.3,5.5,10.8,10.7,16.1,16.2c1.6,1.7,3.7,3.5,1,6.3c-2.6,2.6-4.5,2-6.8-0.4
	c-22.8-23.3-45.6-46.5-68.4-69.8c-23.3-23.8-46.6-47.6-69.7-71.5c-2.8-2.9-4.9-2.9-8-0.7C197.7,56,146.3,91.2,94.9,126.4
	c-27.9,19.1-55.9,38-83.8,57c-2.5,1.7-4.2,1.5-6-1.2c-2.1-3.2-0.2-4.4,1.9-5.9c29.9-20.5,59.7-41,89.6-61.5c8-5.5,16-11,24.1-16.3
	c3.4-2.2,5-4.9,4.9-9.4c-0.2-22.7,0-45.3-0.2-68c0-4.3,1.3-5.5,5.3-5.5c18.4,0.2,36.8,0.1,55.1,0.1c5.5,0,5.6,0.1,5.6,6.1
	c0.1,7.1,0,14.2,0,21.3C191.5,44.8,191.6,46.4,191.8,49.2z M132.6,89c1.4-0.5,2-0.6,2.4-0.9c15.9-10.8,31.9-21.5,47.7-32.5
	c1.3-0.9,2.1-3.4,2.2-5.2c0.2-7,0.1-13.9,0-20.9c-0.1-6.7-0.1-6.8-6.3-6.8c-13.7-0.1-27.5,0.1-41.2-0.1c-4-0.1-5.4,1.4-5.4,5.7
	c0.2,18.5,0.1,37,0.1,55.5C132.2,85.4,132.4,86.9,132.6,89z"/>
<path class="st0" d="M442.7,316.2c-4.2,4.8-6.5,10.8-8.5,16.9c-0.8,2.4-1.4,4.8-1.8,7.3c-0.6,3.7-2.5,5.3-6,5.3
	c-6.7,0.1-7.7-0.6-9.2-5.2c-2.2-6.7-4.5-13.3-7.1-19.9c-0.7-1.7-2.3-3.1-3.4-4.6c-0.4,0.1-0.7,0.3-1.1,0.4c-0.1,1.5-0.3,3-0.3,4.6
	c0,10.5-0.2,21,0,31.6c0.1,4.1-1.3,5.7-5.1,5.4c-3.4-0.3-6.7-0.3-10.1,0c-4,0.3-5.4-1.3-5.4-5.6c0.2-19.4,0-38.8,0.1-58.2
	c0-13-1.4-11.1,11.1-11.8c7-0.4,12.3,1.6,15.9,8.1c3.6,6.5,7.3,12.9,11,19.4c0.6,1.1,1.1,2.3,2.1,4.4c1.3-2.5,2.2-4.2,3.1-5.9
	c4.3-7.4,8.5-15,13.3-22c1.4-2,4.6-3.3,7.1-3.6c4.1-0.6,8.4-0.1,12.6-0.1c2.8,0,4.1,1.3,4.1,4.3c-0.1,22.4-0.1,44.8-0.1,67.1
	c0,2.8-1.2,4-3.9,4c-4.1-0.1-8.1-0.2-12.2,0c-3.3,0.1-4.5-1.3-4.5-4.7c0.1-10.8,0-21.6,0-32.5c0-1.4-0.1-2.8-0.2-4.2
	C443.5,316.5,443.1,316.4,442.7,316.2z"/>
<path class="st0" d="M560.3,282.7c7.9,0,15.7,0.1,23.6,0c3.4-0.1,4.9,1.2,4.9,4.9c-0.2,14.5,1.3,12.1-11.2,12.3
	c-6.9,0.1-13.7,0.1-20.6,0.1c-3.1,0-4.5,1.2-4.5,4.8c0.1,10.8,0.1,21.6,0,32.4c0,3.6,1.4,5.3,4.8,5c3.9-0.4,7.9-0.4,11.7-1.3
	c4.4-1,6.1-4.1,6.1-8.8c-0.1-4.9-1.8-7.6-6.3-8.7c-2.6-0.6-5.3-0.5-7.9-0.7c-1-0.1-2.3,0.4-2.9-0.1c-3.8-3.2-1.2-7.7-1.6-11.5
	c-0.1-1.2,1.5-3.8,2.6-3.9c8.7-1.1,17.3-1.4,25.4,3.2c9.3,5.3,12.3,13.9,11.6,24.1c-0.6,10-5.8,17.2-14.7,20.2
	c-6.2,2.1-12.8,3.1-19.3,3.5c-8.4,0.5-16.8-0.1-25.2,0c-3.2,0-4.5-1.3-4.5-4.7c0.1-21.9,0.1-43.8,0-65.8c0-4,1.6-5.1,5.1-5
	C544.8,282.8,552.5,282.7,560.3,282.7C560.3,282.7,560.3,282.7,560.3,282.7z"/>
<path class="st0" d="M722.1,320.5c0,10.8-0.1,21.6,0.1,32.4c0.1,3.9-1.4,5.4-5,5.1c-3.5-0.2-7-0.3-10.5-0.1
	c-3.7,0.2-4.9-1.5-4.9-5.3c0.1-15.6,0-31.1-0.1-46.6c0-6.3-0.8-6.9-6.7-5.6c-9.5,2.2-15.1,9.4-15.5,21.5c-0.3,9.4,0.2,18.9,0.7,28.4
	c0.4,7.3,0.3,7.7-6.4,7.6c-3.4,0-6.8,0.2-10.1-0.2c-1.4-0.2-3.7-1.7-3.9-2.9c-3-18.6-3.4-37.2,4-54.9c3.9-9.5,11.3-15.1,20.7-16
	c11.4-1.2,22.9-0.9,34.4-1.2c3.2-0.1,3.3,2.5,3.3,5c0,11,0,21.9,0,32.9C722.3,320.5,722.2,320.5,722.1,320.5z"/>
<path class="st0" d="M733.6,320.4c0-10.7,0-21.3,0-32c0-5.4,0.3-5.7,5.6-5.7c3.2,0,6.5,0.2,9.7,0c3.8-0.3,5.2,1.3,5.2,5.4
	c0,15.7,0.2,31.4,0.3,47.1c0,5.7,0.2,6,5.7,5.9c2.1,0,4.2-0.1,6.3-0.5c6.9-1.4,10.1-5.7,9.4-12.8c-0.6-6.3-5.1-10.2-11.7-10.2
	c-6.7,0-6.7,0-6.6-7.3c0.1-9.1,0.1-9.1,8.5-9.5c1.1-0.1,2.2-0.1,3.4-0.1c21.9,0.3,34.4,22.2,24.4,42.9c-2.8,5.9-7.6,9.7-13.4,11.4
	c-5.6,1.7-11.5,2.8-17.3,3.1c-8.2,0.5-16.5-0.1-24.8,0.1c-3.4,0.1-4.7-1.2-4.7-4.9C733.7,342.3,733.6,331.3,733.6,320.4z"/>
<path class="st0" d="M475.9,320c0-10.5,0.1-21-0.1-31.6c-0.1-4.1,1-5.9,5.2-5.8c11.9,0.3,23.9,0.3,35.8,0.2c3.9,0,5.5,1.1,5.5,5.5
	c-0.1,11.4,0,11.4-10.6,11.4c-3.9,0-7.9,0.1-11.8,0c-2.8-0.1-3.6,1.4-3.6,4.1c0.1,11,0.1,21.9,0,32.9c0,3.1,1.3,4.2,4.1,4.2
	c6.5-0.1,12.9,0.1,19.4,0c3.3-0.1,4.4,1.3,4.4,4.7c-0.4,14.4,1.7,12.2-11.6,12.3c-10.5,0.1-21-0.1-31.6,0c-3.9,0.1-5.2-1.5-5.1-5.5
	C476,341.7,475.9,330.9,475.9,320C475.9,320,475.9,320,475.9,320z"/>
<path class="st0" d="M604.7,320.5c0-10.8,0.1-21.6-0.1-32.4c-0.1-4.1,1.3-5.5,5.2-5.4c12.1,0.2,24.1,0.2,36.2,0
	c3.9-0.1,5.2,1.4,5.1,5.4c-0.2,13.7,1.1,11.5-10.9,11.7c-3.8,0.1-7.6,0.1-11.4,0c-2.7-0.1-3.8,1.2-3.8,4c0.1,11.1,0.1,22.2,0,33.3
	c0,3.3,1.7,3.9,4.3,3.9c6.4,0,12.9,0.1,19.4,0c3.1-0.1,4.3,1.2,4.1,4.5c-0.2,2.8-0.2,5.6,0,8.4c0.1,3.1-1.2,4.2-4,4.1
	c-13.2-0.1-26.4-0.1-39.5,0c-3.6,0-4.5-1.6-4.5-5.1C604.7,342.1,604.7,331.3,604.7,320.5z"/>
<path class="st0" d="M641.8,305.7c3.1,0,6.2,0.1,9.2,0c3.3-0.2,4.4,1.4,4.3,4.8c-0.4,14.4,1.3,12-11.3,12.2c-3.9,0.1-7.8-0.1-11.7,0
	c-2.6,0.1-3.9-1-3.8-3.9c0.2-15.9-1.5-12.7,11.2-13C640.4,305.7,641.1,305.8,641.8,305.7C641.8,305.7,641.8,305.7,641.8,305.7z"/>
<path class="st0" d="M513.2,305.7c2.9,0,5.9,0.1,8.8,0c3.2-0.2,4.6,1,4.5,4.6c-0.5,14.4,1.8,12.1-11.6,12.4c-3.8,0.1-7.6-0.1-11.4,0
	c-2.6,0.1-3.9-1.2-3.8-4c0.1-15.4-1.5-12.7,11.3-13C511.8,305.7,512.5,305.7,513.2,305.7C513.2,305.7,513.2,305.7,513.2,305.7z"/>
<path class="st0" d="M223.7,283.5c1.9,0.6,3,0.9,4.1,1.2c6.9,1.9,12.4-0.8,14.9-7.9c3.8-10.9,3.9-22.1,0.1-33.1
	c-2.6-7.7-8.2-10.2-15.6-10.2c-8,0.1-8-0.1-8,8.2c0,36.7,0,73.5,0,110.2c0,6.1,0,6.1-5.9,6.1c-4.3,0-8.7-0.2-13,0.1
	c-3.7,0.2-4.8-1.4-4.8-5.2c0.1-33.2,0.1-66.4,0.1-99.5c0-16.9,0.1-33.8-0.1-50.7c0-4,1.1-5.5,5-5.4c9.5,0.2,19.1,0.1,28.6,0
	c17.8-0.1,28.9,8,35.1,25.9c5.8,16.7,6.4,33.9,4.4,51.3c-1.2,10.3-3.2,20.5-7.9,29.8c-6.9,13.9-18.8,19.8-32.1,16.3
	c-3.9-1-5.5-3-5.4-7.4c0.3-8.1,0-16.3,0.1-24.4C223.4,287.2,223.6,285.7,223.7,283.5z"/>
<path class="st0" d="M137.8,253.7c-0.4,1.3-1,2.6-1.2,3.9c-4.2,26.6-8.4,53.1-12.5,79.7c-0.8,5.4-1.2,10.9-1.8,16.3
	c-0.3,3.2-1.8,4.6-5,4.4c-4.2-0.2-8.4-0.1-12.6-0.1c-6.1,0-6.5-0.2-5.9-6.8c0.7-8.3,1.6-16.5,2.9-24.7c3.8-24.4,7.3-48.9,11.8-73.1
	c3.2-17.1,8-33.9,11.9-50.8c0.9-3.9,2.8-5.6,6.8-5.3c4.3,0.4,8.7,0.2,13,0c3.2-0.2,5,1.1,5.8,4.3c3.3,13.2,7.6,26.1,9.9,39.5
	c5.7,32.9,10.5,66,15.6,99c0.7,4.4,0.8,8.8,1.2,13.3c0.3,3.1-0.7,4.8-3.9,4.7c-5.1-0.1-10.1-0.1-15.1-0.1c-3,0-4.3-1.4-4.5-4.5
	c-0.4-5.8-1.2-11.5-1.5-17.2c-0.2-4.2-1.9-5.7-5.8-5.6c-4.5,0.2-9-0.1-13.5,0.1c-3.1,0.1-4.5-1-4-4.3c1.1-8.5,2.1-17,3.1-25.5
	c0.3-2.7,1.7-4,4.3-3.6c0.6,0.1,1.1,0,1.7,0c9.3,0,9.5,0,7.8-9.5c-1.9-10.4-4.2-20.8-6.4-31.2c-0.2-1-0.8-2-1.2-3
	C138.4,253.7,138.1,253.7,137.8,253.7z"/>
<path class="st0" d="M303.1,296c0-19-0.1-37.9,0.1-56.9c0-4.3-1.2-5.9-5.3-5.6c-3.3,0.3-6.7,0-10.1,0.1c-2.8,0.1-4.1-0.9-4.1-4.1
	c0-9.2-0.1-18.4-0.3-27.5c-0.1-3.5,1.3-4.7,4.5-4.6c17.9,0.1,35.9,0.1,53.8,0c3,0,4.3,1.1,4.3,4.4c-0.1,9.3-0.1,18.7,0,28
	c0,2.8-1,4-3.7,3.9c-3.5-0.1-7,0.2-10.5-0.1c-4.2-0.4-5.6,1.2-5.5,5.8c0.2,22.8,0.1,45.6,0.1,68.4c0,15-0.1,29.9,0.1,44.9
	c0.1,4.1-1.3,5.6-5.1,5.4c-4.3-0.2-8.7-0.2-13,0.1c-4.2,0.3-5.3-1.6-5.2-5.7C303.2,333.6,303.1,314.8,303.1,296
	C303.1,296,303.1,296,303.1,296z"/>
</svg>
