<?xml version="1.0" encoding="utf-8"?>
<!-- Generator: Adobe Illustrator 27.6.1, SVG Export Plug-In . SVG Version: 6.00 Build 0)  -->
<svg version="1.1" id="Слой_1" xmlns="http://www.w3.org/2000/svg" xmlns:xlink="http://www.w3.org/1999/xlink" x="0px" y="0px"
	 viewBox="0 0 300 300" style="enable-background:new 0 0 300 300;" xml:space="preserve">
<style type="text/css">
	.st0{fill:#0F2032;stroke:#020203;stroke-miterlimit:10;}
	.st1{fill:#FFFFFF;stroke:#FFFFFF;stroke-miterlimit:10;}
</style>
<circle class="st0" cx="150" cy="150" r="137.9"/>
<path class="st1" d="M155.1,113.8c23.3,0,46.7,0,70,0c3.2,0,3.2,0,3.2,3.4c0,40.2,0,80.4,0,120.6c0,3.4,0,3.4-3.2,3.4
	c-46.7,0-93.5,0-140.2,0c-3.2,0-3.2,0-3.2-3.3c0-40.3,0-80.7,0-121c0-3,0-3,2.8-3C108,113.9,131.5,113.9,155.1,113.8L155.1,113.8z
	 M155,118.2L155,118.2c-22-0.1-44.1-0.1-66.2-0.1c-3.2,0-3.2,0-3.2,3.2c0,37.3,0,74.6,0.1,111.9c0,3.8,0.1,3.8,3.6,3.8
	c43.9,0,87.9,0,131.8,0c3.2,0,3.1,0,3.2-3.3c0-37.5,0.1-75.1,0.1-112.6c0-2.9-0.1-3-2.8-3C199.3,118.2,177.2,118.2,155,118.2z"/>
<path class="st1" d="M139.9,63.4c3.1-2,5.7-3.7,8.3-5.4c7-4.7,13.9-9.4,20.8-14.2c1.7-1.2,2.7-1.1,4.1,0.4
	c21,21.7,42.1,43.3,63.1,64.9c2.7,2.7,5.4,5.4,8.1,8.1c0.8,0.8,1.9,1.7,0.5,3.1c-1.3,1.3-2.2,1-3.4-0.2
	c-11.4-11.6-22.8-23.2-34.2-34.9c-11.6-11.9-23.3-23.8-34.8-35.7c-1.4-1.4-2.4-1.4-4-0.4c-25.7,17.6-51.3,35.3-77,52.8
	c-13.9,9.5-27.9,19-41.9,28.5c-1.2,0.8-2.1,0.8-3-0.6c-1.1-1.6-0.1-2.2,1-2.9c14.9-10.2,29.8-20.5,44.8-30.7c4-2.7,8-5.5,12-8.1
	c1.7-1.1,2.5-2.5,2.5-4.7c-0.1-11.3,0-22.6-0.1-34c0-2.2,0.7-2.8,2.6-2.7c9.2,0.1,18.4,0,27.5,0.1c2.7,0,2.8,0.1,2.8,3
	c0,3.6,0,7.1,0,10.7C139.8,61.2,139.8,62,139.9,63.4z M110.3,83.3c0.7-0.2,1-0.3,1.2-0.4c8-5.4,15.9-10.8,23.8-16.2
	c0.6-0.4,1.1-1.7,1.1-2.6c0.1-3.5,0-7,0-10.4c0-3.4,0-3.4-3.1-3.4c-6.9,0-13.7,0.1-20.6,0c-2,0-2.7,0.7-2.7,2.8
	c0.1,9.2,0,18.5,0,27.7C110.1,81.5,110.3,82.2,110.3,83.3z"/>
</svg>
